<mxfile host="app.diagrams.net" modified="2023-12-19T12:57:35.903Z" agent="Mozilla/5.0 (Macintosh; Intel Mac OS X 10_15_7) AppleWebKit/537.36 (KHTML, like Gecko) Chrome/120.0.0.0 Safari/537.36" version="22.1.11" etag="xGyjKM-1_jHc2Z1JKg_2" type="github">
  <diagram name="Page-1" id="fnk4YLwS93BV3AnEA45L">
    <mxGraphModel>
      <root>
        <mxCell id="0" />
        <mxCell id="1" parent="0" />
      </root>
    </mxGraphModel>
  </diagram>
</mxfile>
